<svg width="390" height="483" viewBox="0 0 390 483" fill="none" xmlns="http://www.w3.org/2000/svg">
<path d="M394.429 0.0443768V479.309C394.479 480.57 394.48 481.802 394.429 483V479.309C392.166 422.18 288.255 302.693 196.697 340.449C132.928 366.745 76.6909 404.314 26.9893 340.449C-9.22584 293.913 -18.292 246.831 -21.7667 176.628C-25.5423 100.343 17.7194 -2.44525 20.0543 0.0443768H394.429Z" fill="#181C61"/>
<path d="M365.405 405.989C378.577 387.577 384.605 364.471 382.244 341.452C379.882 318.434 369.311 297.264 352.718 282.323C336.125 267.381 314.779 259.812 293.097 261.181C271.415 262.55 251.056 272.753 236.233 289.678L256.432 309.784C266.415 298.385 280.127 291.513 294.731 290.591C309.334 289.669 323.711 294.767 334.887 304.83C346.063 314.894 353.183 329.152 354.773 344.656C356.364 360.159 352.303 375.721 343.432 388.122L365.405 405.989Z" fill="#1E226A"/>
</svg>
